<?xml version="1.0" standalone="no"?>
<!DOCTYPE svg PUBLIC "-//W3C//DTD SVG 20010904//EN"
 "http://www.w3.org/TR/2001/REC-SVG-20010904/DTD/svg10.dtd">
<svg version="1.0" xmlns="http://www.w3.org/2000/svg"
 width="700.000000pt" height="700.000000pt" viewBox="0 0 700.000000 700.000000"
 preserveAspectRatio="xMidYMid meet">
<metadata>
Created by potrace 1.14, written by Peter Selinger 2001-2017
</metadata>
<g transform="translate(0.000000,700.000000) scale(0.100000,-0.100000)"
fill="#000000" stroke="none">
<path d="M0 5323 l0 -978 1215 0 c668 1 1215 -2 1215 -5 0 -5 -308 -470 -327
-495 -4 -5 -220 -327 -479 -715 -259 -388 -730 -1093 -1047 -1567 l-577 -863
1055 0 1054 0 51 88 c28 48 55 94 60 102 5 8 31 53 58 100 46 80 132 230 392
680 62 107 121 211 132 230 47 87 85 151 96 162 7 7 12 15 12 19 0 4 66 121
147 261 80 139 157 273 171 298 14 25 33 57 43 72 11 14 19 29 19 32 0 3 24
45 53 93 28 48 55 96 59 105 4 9 18 35 32 57 24 37 28 40 68 38 42 -2 42 -2
95 -92 29 -49 56 -97 60 -105 4 -8 31 -55 60 -104 29 -49 53 -90 53 -92 0 -2
19 -36 43 -76 24 -40 46 -80 50 -88 4 -8 13 -24 20 -35 40 -68 668 -1155 730
-1265 10 -19 41 -72 68 -118 27 -45 49 -87 49 -91 0 -5 3 -11 8 -13 4 -1 14
-16 23 -33 9 -16 42 -74 73 -127 l57 -98 1056 0 c968 0 1054 1 1042 16 -7 9
-18 24 -24 34 -5 10 -25 39 -42 65 -18 25 -33 49 -33 54 0 4 -8 16 -17 27 -24
26 -217 316 -221 331 -2 7 -7 13 -11 13 -4 0 -13 10 -20 23 -14 27 -21 38
-148 227 -57 83 -103 155 -103 160 0 5 -4 10 -8 12 -5 2 -199 289 -432 638
-233 349 -632 947 -887 1328 -255 381 -466 698 -469 705 -4 10 240 13 1208 13
l1213 0 3 977 2 977 -3500 0 -3500 0 0 -977z"/>
</g>
</svg>
